<?xml version="1.0" encoding="UTF-8"?>
<svg id="Capa_1" data-name="Capa 1" xmlns="http://www.w3.org/2000/svg" viewBox="0 0 1080 1080">
  <defs>
    <style>
      .cls-1 {
        fill: #264de4;
      }

      .cls-2 {
        fill: #fff;
      }

      .cls-3 {
        fill: #2965f1;
      }

      .cls-4 {
        fill: #ebebeb;
      }
    </style>
  </defs>
  <polygon id="polygon2989" class="cls-1" points="825.9 215.85 773.84 799.92 539.38 864.79 305.72 799.92 253.66 215.85 825.9 215.85"/>
  <polygon id="polygon2991" class="cls-3" points="729.08 762.65 773.64 263.57 539.78 263.57 539.78 815.1 729.08 762.65"/>
  <polygon id="polygon2993" class="cls-4" points="372.96 480.28 379.46 551.86 539.78 551.86 539.78 480.28 372.96 480.28"/>
  <polygon id="polygon2995" class="cls-4" points="539.78 335.15 539.58 335.15 360.14 335.15 366.65 406.92 539.78 406.92 539.78 335.15"/>
  <polygon id="polygon2997" class="cls-4" points="539.78 740.76 539.78 666.23 539.38 666.42 459.72 644.73 454.59 587.75 415.75 587.75 382.62 587.75 392.68 700.14 539.38 740.96 539.78 740.76"/>
  <polygon id="polygon3005" class="cls-2" points="627.72 551.86 619.44 644.73 539.58 666.42 539.58 740.76 686.29 700.14 687.47 688.11 704.23 499.4 706.01 480.28 719.02 335.15 539.58 335.15 539.58 406.92 640.54 406.92 634.03 480.28 539.58 480.28 539.58 551.86 627.72 551.86"/>
</svg>