<svg id="Version_5" data-name="Version 5" xmlns="http://www.w3.org/2000/svg" viewBox="0 0 505.02 786.88"><path d="M765.71,504.14c-33.67,101-39.06,117.17-160,159.78,54,17.72,79.49,81.82,56.65,150.3-4.22,12.65,4.22,12.65,16.88,16.87l-25.31,8.44L578,864.84c-12.51,4.17-20.91-4-17-16.52a1.15,1.15,0,0,1,.06-.17c35.54-107.9,56.19-187.63-37.88-156.27L459.84,881.73c-4.22,12.64,4.22,12.64,16.86,16.87L451.41,907l-75.93,25.31c-12.66,4.22-21.11-4.22-16.88-16.88L472.5,573.75l4.22-12.66L375.47,594.84,299,620.32c-12.39,3.82-20.53-4.55-16.39-17v0l135-405v0c4.19-12.65-4.24-12.65-16.89-16.87L426.1,173l50.62-16.88L502,147.66c12.66-4.22,21.09,4.21,16.88,16.88l-135,405,101.24-33.75L586.41,502,578,527.34,573.75,540,531.57,666.56c101.24-33.75,101.24-33.75,132.89-128.67S696.1,443,594.85,476.72L493.59,510.47,502,485.16l101.25-33.75C805.78,383.91,805.78,383.91,765.71,504.14Z" transform="translate(-281.56 -146.56)"/></svg>