<?xml version="1.0" encoding="UTF-8"?>
<svg id="Capa_1" data-name="Capa 1" xmlns="http://www.w3.org/2000/svg" xmlns:xlink="http://www.w3.org/1999/xlink" viewBox="0 0 1080 1080">
  <defs>
    <style>
      .cls-1 {
        fill: #fff;
      }

      .cls-2 {
        fill: #777bb3;
      }

      .cls-3 {
        fill: url(#Degradado_sin_nombre_4);
      }
    </style>
    <radialGradient id="Degradado_sin_nombre_4" data-name="Degradado sin nombre 4" cx="176.95" cy="568.99" fx="176.95" fy="568.99" r="1.21" gradientTransform="translate(-79932.06 -257823.22) scale(453.82)" gradientUnits="userSpaceOnUse">
      <stop offset="0" stop-color="#aeb2d5"/>
      <stop offset=".3" stop-color="#aeb2d5"/>
      <stop offset=".75" stop-color="#484c89"/>
      <stop offset="1" stop-color="#484c89"/>
    </radialGradient>
  </defs>
  <path id="path3462" class="cls-3" d="M120.63,540c0,121.33,186.95,219.7,417.65,219.7h0c230.7,0,417.65-98.37,417.65-219.7h0c0-121.33-186.95-219.7-417.65-219.7h0c-230.7,0-417.65,98.37-417.65,219.7"/>
  <path id="path3474" class="cls-2" d="M538.28,743.39c221.64,0,401.34-91.12,401.34-203.39s-179.7-203.39-401.34-203.39-401.34,91-401.34,203.39,179.7,203.39,401.34,203.39"/>
  <path id="path3486" d="M347.59,565.26c18.25,0,31.78-3.38,40.48-10.03,8.46-6.53,14.38-17.89,17.52-33.72,2.9-14.86,1.81-25.14-3.26-30.7-5.2-5.68-16.31-8.58-33.11-8.58h-29.12l-16.19,83.14h23.69v-.12Zm-95.35,102.36c-1.33,0-2.66-.6-3.5-1.69-.85-1.09-1.21-2.42-.97-3.75l42.78-220.19c.36-2.18,2.3-3.63,4.47-3.63h92.21c29,0,50.51,7.86,64.17,23.44,13.66,15.59,17.89,37.46,12.57,64.9-2.18,11.12-5.92,21.51-11.12,30.82-5.2,9.31-12.08,17.89-20.42,25.62-10.03,9.31-21.27,16.19-33.6,20.18-12.08,3.99-27.67,5.92-46.16,5.92h-37.34l-10.63,54.87c-.36,2.18-2.3,3.63-4.47,3.63h-47.98v-.12Z"/>
  <path id="path3490" class="cls-1" d="M343.72,486.71h25.38c20.3,0,27.31,4.47,29.73,7.13,3.99,4.35,4.71,13.66,2.18,26.83-2.9,14.74-8.22,25.14-15.83,31.06-7.86,6.04-20.42,9.06-37.7,9.06h-18.13l14.38-74.08Zm43.63-52.93h-92.21c-4.35,0-8.1,3.02-8.94,7.37l-42.78,220.19c-.48,2.66,.24,5.44,1.93,7.49s4.23,3.26,7.01,3.26h47.98c4.35,0,8.1-3.02,8.94-7.37l9.91-51.24h33.48c18.97,0,35.05-2.05,47.49-6.16,12.93-4.23,24.77-11.36,35.29-21.15,8.7-7.98,15.83-16.92,21.27-26.71,5.44-9.67,9.31-20.54,11.6-32.15,5.56-28.88,1.09-51.97-13.54-68.64-14.38-16.44-37.1-24.89-67.43-24.89m-69,135.96h29.12c19.34,0,33.72-3.63,43.26-10.88,9.43-7.25,15.83-19.46,19.21-36.5,3.14-16.31,1.69-27.92-4.35-34.68-6.04-6.77-18.25-10.15-36.5-10.15h-32.87l-17.89,92.21m69-126.89c27.8,0,47.98,7.25,60.67,21.87,12.69,14.62,16.56,34.93,11.48,61.03-2.05,10.76-5.68,20.54-10.63,29.49-4.95,8.94-11.48,17.04-19.58,24.41-9.55,8.94-20.18,15.35-31.9,19.09-11.72,3.87-26.59,5.68-44.71,5.68h-41.09l-11.36,58.49h-47.98l42.78-220.19h92.33"/>
  <path id="path3494" d="M573.94,609c-1.33,0-2.66-.6-3.5-1.69-.85-1.09-1.21-2.42-.97-3.75l18.97-97.4c1.81-9.31,1.33-15.95-1.21-18.73-1.57-1.69-6.4-4.59-20.54-4.59h-34.32l-23.81,122.42c-.36,2.18-2.3,3.63-4.47,3.63h-47.61c-1.33,0-2.66-.6-3.5-1.69-.85-1.09-1.21-2.42-.97-3.75l42.78-220.19c.36-2.18,2.3-3.63,4.47-3.63h47.61c1.33,0,2.66,.6,3.5,1.69,.85,1.09,1.21,2.42,.97,3.75l-10.27,53.17h36.86c28.16,0,47.13,4.95,58.25,15.11,11.36,10.39,14.86,27.07,10.51,49.43l-19.94,102.48c-.36,2.18-2.3,3.63-4.47,3.63h-48.34v.12Z"/>
  <path id="path3498" class="cls-1" d="M546.86,375.28h-47.61c-4.35,0-8.1,3.02-8.94,7.37l-42.78,220.19c-.48,2.66,.12,5.44,1.93,7.49,1.69,2.05,4.23,3.26,7.01,3.26h47.61c4.35,0,8.1-3.02,8.94-7.37l23.08-118.79h30.45c14.14,0,17.16,3.02,17.28,3.14,.85,.97,1.93,5.2,.12,14.74l-18.97,97.4c-.48,2.66,.12,5.44,1.93,7.49,1.69,2.05,4.23,3.26,7.01,3.26h48.34c4.35,0,8.1-3.02,8.94-7.37l19.94-102.48c4.71-24.05,.73-42.06-11.84-53.66-11.96-11-32.02-16.31-61.27-16.31h-31.42l9.31-47.74c.48-2.66-.12-5.44-1.93-7.49-1.93-1.93-4.47-3.14-7.13-3.14m0,9.06l-11.36,58.49h42.42c26.71,0,45.08,4.71,55.23,13.9,10.15,9.31,13.17,24.41,9.06,45.2l-19.94,102.48h-48.34l18.97-97.4c2.18-11.12,1.33-18.61-2.42-22.72-3.75-3.99-11.72-6.04-23.93-6.04h-38.07l-24.53,126.17h-47.61l42.9-220.07h47.61"/>
  <path id="path3502" d="M721.85,565.26c18.25,0,31.78-3.38,40.48-10.03,8.46-6.53,14.38-17.89,17.52-33.72,2.9-14.86,1.81-25.14-3.26-30.7-5.2-5.68-16.31-8.58-33.11-8.58h-29.12l-16.19,83.14h23.69v-.12Zm-95.23,102.36c-1.33,0-2.66-.6-3.5-1.69-.85-1.09-1.21-2.42-.97-3.75l42.78-220.19c.36-2.18,2.3-3.63,4.47-3.63h92.21c29,0,50.51,7.86,64.17,23.44,13.66,15.59,17.89,37.46,12.57,64.9-2.18,11.12-5.92,21.51-11.12,30.82s-12.08,17.89-20.42,25.62c-10.03,9.31-21.27,16.19-33.6,20.18-12.08,3.99-27.67,5.92-46.16,5.92h-37.34l-10.63,54.87c-.36,2.18-2.3,3.63-4.47,3.63h-47.98v-.12Z"/>
  <path id="path3506" class="cls-1" d="M718.11,486.71h25.38c20.3,0,27.31,4.47,29.73,7.13,3.99,4.35,4.71,13.66,2.18,26.83-2.9,14.74-8.22,25.14-15.83,31.06-7.86,6.04-20.42,9.06-37.7,9.06h-18.13l14.38-74.08Zm43.51-52.93h-92.21c-4.35,0-8.1,3.02-8.94,7.37l-42.78,220.19c-.48,2.66,.12,5.44,1.93,7.49,1.69,2.05,4.23,3.26,7.01,3.26h47.98c4.35,0,8.1-3.02,8.94-7.37l9.91-51.24h33.6c18.97,0,35.05-2.05,47.49-6.16,12.93-4.23,24.77-11.36,35.29-21.15,8.7-7.98,15.83-16.92,21.27-26.71,5.44-9.67,9.31-20.54,11.6-32.15,5.56-28.88,1.09-51.97-13.54-68.64-14.38-16.44-37.1-24.89-67.55-24.89m-68.88,135.96h29.12c19.34,0,33.72-3.63,43.26-10.88,9.43-7.25,15.83-19.46,19.22-36.5,3.14-16.31,1.69-27.92-4.35-34.68-6.04-6.77-18.25-10.15-36.5-10.15h-32.87l-17.89,92.21m68.88-126.89c27.8,0,47.98,7.25,60.67,21.87,12.69,14.62,16.56,34.93,11.48,61.03-2.05,10.76-5.68,20.54-10.63,29.49s-11.48,17.04-19.58,24.41c-9.55,8.94-20.18,15.35-31.9,19.09-11.72,3.87-26.59,5.68-44.71,5.68h-41.09l-11.36,58.49h-47.98l42.78-220.19h92.33"/>
</svg>