<?xml version="1.0" encoding="UTF-8"?>
<svg id="Capa_1" data-name="Capa 1" xmlns="http://www.w3.org/2000/svg" viewBox="0 0 1080 1080">
  <defs>
    <style>
      .cls-1 {
        fill: #cd6799;
      }
    </style>
  </defs>
  <path class="cls-1" d="M856.77,579.72c-26.81,.14-50.11,6.6-69.63,16.14-7.16-14.18-14.32-26.81-15.58-36.08-1.4-10.81-3.09-17.41-1.4-30.32,1.68-12.91,9.26-31.3,9.12-32.71s-1.68-8-17.13-8.14c-15.44-.14-28.78,2.95-30.32,7.02-1.54,4.07-4.49,13.34-6.46,22.88-2.67,14.04-30.88,64.15-47.03,90.4-5.19-10.25-9.69-19.23-10.67-26.39-1.4-10.81-3.09-17.41-1.4-30.32,1.68-12.91,9.26-31.3,9.12-32.71s-1.68-8-17.13-8.14-28.78,2.95-30.32,7.02c-1.54,4.07-3.23,13.62-6.46,22.88-3.23,9.26-40.71,92.93-50.54,114.55-5.05,11.09-9.41,19.93-12.49,25.97h0s-.14,.42-.56,1.12c-2.67,5.19-4.21,8-4.21,8v.14c-2.11,3.79-4.35,7.3-5.47,7.3-.84,0-2.39-10.11,.28-23.86,5.62-29.06,18.95-74.26,18.81-75.8,0-.84,2.53-8.7-8.7-12.77-10.95-4.07-14.88,2.67-15.86,2.67s-1.68,2.39-1.68,2.39c0,0,12.21-50.82-23.3-50.82-22.18,0-52.78,24.28-67.94,46.18-9.55,5.19-29.9,16.28-51.66,28.22-8.28,4.63-16.85,9.26-24.85,13.62-.56-.56-1.12-1.26-1.68-1.82-42.95-45.9-122.41-78.33-119.04-139.95,1.26-22.46,8.98-81.42,152.59-153.01,118.2-58.26,212.25-42.11,228.53-6.32,23.3,51.1-50.39,145.99-172.52,159.75-46.6,5.19-71.03-12.77-77.21-19.51-6.46-7.02-7.44-7.44-9.83-6.04-3.93,2.11-1.4,8.42,0,12.07,3.65,9.55,18.67,26.39,44.08,34.67,22.46,7.3,77.07,11.37,143.18-14.18,73.98-28.64,131.81-108.23,114.83-174.91-16.99-67.66-129.29-89.98-235.55-52.22-63.17,22.46-131.67,57.83-180.94,103.88-58.54,54.75-67.8,102.33-64.01,122.27,13.62,70.75,111.18,116.79,150.2,150.9-1.97,1.12-3.79,2.11-5.33,2.95-19.51,9.69-93.91,48.57-112.44,89.7-21.06,46.6,3.37,80.01,19.51,84.51,50.11,13.9,101.63-11.09,129.29-52.36,27.65-41.27,24.28-94.89,11.51-119.46-.14-.28-.28-.56-.56-.84,5.05-2.95,10.25-6.04,15.3-8.98,9.97-5.9,19.79-11.37,28.22-15.86-4.77,13.05-8.28,28.64-9.97,51.1-2.11,26.39,8.7,60.64,22.88,74.12,6.32,5.9,13.76,6.04,18.53,6.04,16.56,0,24-13.76,32.29-30.04,10.11-19.93,19.23-43.1,19.23-43.1,0,0-11.37,62.61,19.51,62.61,11.23,0,22.6-14.6,27.65-22.04v.14s.28-.42,.84-1.4c1.12-1.82,1.82-2.95,1.82-2.95v-.28c4.49-7.86,14.6-25.69,29.62-55.31,19.37-38.18,38.04-85.91,38.04-85.91,0,0,1.68,11.65,7.44,31.02,3.37,11.37,10.39,23.86,16,35.94-4.49,6.32-7.3,9.83-7.3,9.83l.14,.14c-3.65,4.77-7.58,9.97-11.93,15.02-15.3,18.25-33.55,39.16-36.08,45.2-2.95,7.16-2.25,12.35,3.37,16.56,4.07,3.09,11.37,3.51,18.81,3.09,13.76-.98,23.44-4.35,28.22-6.46,7.44-2.67,16.14-6.74,24.28-12.77,15.02-11.09,24.14-26.95,23.3-47.87-.42-11.51-4.21-23.02-8.84-33.83,1.4-1.97,2.67-3.93,4.07-5.9,23.72-34.67,42.11-72.71,42.11-72.71,0,0,1.68,11.65,7.44,31.02,2.81,9.83,8.56,20.49,13.62,30.88-22.32,18.11-36.08,39.16-40.99,52.92-8.84,25.55-1.97,37.06,11.09,39.73,5.9,1.26,14.32-1.54,20.49-4.21,7.86-2.53,17.13-6.88,25.97-13.34,15.02-11.09,29.48-26.53,28.64-47.45-.42-9.55-2.95-18.95-6.46-28.08,18.95-7.86,43.38-12.21,74.54-8.56,66.82,7.86,80.01,49.55,77.49,67.1-2.53,17.55-16.56,27.09-21.2,30.04s-6.18,3.93-5.76,6.04c.56,3.09,2.81,2.95,6.74,2.39,5.47-.98,35.09-14.18,36.36-46.46,2.11-41.27-37.2-86.33-106.69-85.91Zm-515.46,173.78c-22.18,24.14-53.06,33.27-66.4,25.55-14.32-8.28-8.7-43.94,18.53-69.49,16.56-15.58,37.9-30.04,52.08-38.88,3.23-1.97,8-4.77,13.76-8.28,.98-.56,1.54-.84,1.54-.84h0c1.12-.7,2.25-1.4,3.37-2.11,9.97,36.5,.42,68.64-22.88,94.05Zm161.43-109.77c-7.72,18.81-23.86,66.96-33.69,64.29-8.42-2.25-13.62-38.74-1.68-74.82,6.04-18.11,18.81-39.73,26.25-48.15,12.07-13.48,25.41-17.97,28.64-12.49,4.07,7.16-14.74,59.38-19.51,71.17Zm133.22,63.73c-3.23,1.68-6.32,2.81-7.72,1.97-.98-.56,1.4-2.81,1.4-2.81,0,0,16.7-17.97,23.3-26.11,3.79-4.77,8.28-10.39,13.05-16.7v1.82c0,21.48-20.78,35.94-30.04,41.83Zm102.75-23.44c-2.39-1.68-1.97-7.3,6.04-24.85,3.09-6.88,10.39-18.39,22.88-29.48,1.4,4.49,2.39,8.84,2.25,12.91-.14,27.09-19.51,37.2-31.16,41.41Z"/>
</svg>