<?xml version="1.0" encoding="UTF-8"?>
<svg id="Capa_2" data-name="Capa 2" xmlns="http://www.w3.org/2000/svg" viewBox="0 0 1080 1080">
  <defs>
    <style>
      .cls-1 {
        fill: #fff;
      }

      .cls-2 {
        fill: #c3002f;
      }

      .cls-3 {
        fill: #dd0031;
      }
    </style>
  </defs>
  <polygon class="cls-3" points="539.78 197.47 539.78 197.47 539.78 197.47 220.61 311.29 269.29 733.31 539.78 883.12 539.78 883.12 539.78 883.12 810.27 733.31 858.95 311.29 539.78 197.47"/>
  <polygon class="cls-2" points="539.78 197.47 539.78 273.58 539.78 273.23 539.78 620.52 539.78 620.52 539.78 883.12 539.78 883.12 810.27 733.31 858.95 311.29 539.78 197.47"/>
  <path class="cls-1" d="M539.78,273.23l-199.52,447.39h74.39l40.11-100.11h169.36l40.11,100.11h74.39l-198.84-447.39h0Zm58.28,285.57h-116.56l58.28-140.22,58.28,140.22Z"/>
</svg>