<?xml version="1.0" encoding="utf-8"?>
<!-- Generator: Adobe Illustrator 26.4.1, SVG Export Plug-In . SVG Version: 6.00 Build 0)  -->
<svg version="1.1" id="Capa_1" xmlns="http://www.w3.org/2000/svg" xmlns:xlink="http://www.w3.org/1999/xlink" x="0px" y="0px"
	 viewBox="0 0 512 408" style="enable-background:new 0 0 512 408;" xml:space="preserve">
<style type="text/css">
	.st0{fill:url(#SVGID_1_);}
	.st1{fill:url(#SVGID_00000130604702264676566760000011385281096999552936_);stroke:#FFFFFF;}
</style>
<linearGradient id="SVGID_1_" gradientUnits="userSpaceOnUse" x1="51.5529" y1="368.3049" x2="498.9538" y2="13.1579" gradientTransform="matrix(1 0 0 -1 0 410)">
	<stop  offset="0" style="stop-color:#9013FE"/>
	<stop  offset="1" style="stop-color:#6610F2"/>
</linearGradient>
<path class="st0" d="M56.5,53.3C55.5,25.6,77.1,0,106.3,0h299.4c29.2,0,50.8,25.6,49.9,53.3c-0.9,26.6,0.3,61.2,9,89.3
	c8.7,28.2,23.4,46.1,47.5,48.4v26c-24.1,2.3-38.8,20.1-47.5,48.4c-8.7,28.1-9.9,62.7-9,89.3c1,27.7-20.6,53.3-49.9,53.3H106.3
	c-29.2,0-50.8-25.6-49.9-53.3c0.9-26.6-0.3-61.2-9-89.3C38.8,237.1,24.1,219.3,0,217v-26c24.1-2.3,38.8-20.1,47.5-48.4
	C56.2,114.5,57.4,80,56.5,53.3z"/>
<linearGradient id="SVGID_00000024698621626117583360000003851854536707441285_" gradientUnits="userSpaceOnUse" x1="189.147" y1="297.6814" x2="289.153" y2="128.5494" gradientTransform="matrix(1 0 0 -1 0 410)">
	<stop  offset="0" style="stop-color:#FFFFFF"/>
	<stop  offset="1" style="stop-color:#F1E5FC"/>
</linearGradient>
<path style="fill:url(#SVGID_00000024698621626117583360000003851854536707441285_);stroke:#FFFFFF;" d="M267.1,312.5
	c47.3,0,75.8-23.2,75.8-61.4c0-28.9-20.3-49.8-50.5-53.1v-1.2c22.2-3.6,39.6-24.2,39.6-47.2c0-32.8-25.9-54.1-65.3-54.1h-88.7v217
	H267.1z M212.4,123h45.9c25,0,39.1,11.1,39.1,31.3c0,21.5-16.5,33.5-46.4,33.5h-38.7C212.4,187.8,212.4,123,212.4,123z M212.4,284.9
	v-71.4H258c32.7,0,49.6,12,49.6,35.5c0,23.5-16.5,35.9-47.6,35.9H212.4z"/>
</svg>
