<?xml version="1.0" encoding="UTF-8"?>
<svg id="Capa_1" data-name="Capa 1" xmlns="http://www.w3.org/2000/svg" xmlns:xlink="http://www.w3.org/1999/xlink" viewBox="0 0 1080 1080">
  <defs>
    <style>
      .cls-1 {
        fill: url(#Degradado_sin_nombre_3);
      }

      .cls-2 {
        fill: url(#Degradado_sin_nombre_2);
        stroke: #fff;
      }
    </style>
    <linearGradient id="Degradado_sin_nombre_3" data-name="Degradado sin nombre 3" x1="247.68" y1="978.01" x2="887.2" y2="1485.66" gradientTransform="translate(0 -670)" gradientUnits="userSpaceOnUse">
      <stop offset="0" stop-color="#9013fe"/>
      <stop offset="1" stop-color="#6610f2"/>
    </linearGradient>
    <linearGradient id="Degradado_sin_nombre_2" data-name="Degradado sin nombre 2" x1="444.42" y1="1078.92" x2="587.37" y2="1320.68" gradientTransform="translate(0 -670)" gradientUnits="userSpaceOnUse">
      <stop offset="0" stop-color="#fff"/>
      <stop offset="1" stop-color="#f1e5fc"/>
    </linearGradient>
  </defs>
  <path class="cls-1" d="M254.76,324.59c-1.43-39.59,29.45-76.19,71.19-76.19h427.97c41.74,0,72.61,36.59,71.33,76.19-1.29,38.02,.43,87.48,12.86,127.65,12.44,40.31,33.45,65.9,67.9,69.18v37.16c-34.45,3.29-55.46,28.73-67.9,69.18-12.44,40.17-14.15,89.62-12.86,127.65,1.43,39.59-29.45,76.19-71.33,76.19H325.94c-41.74,0-72.61-36.59-71.33-76.19,1.29-38.02-.43-87.48-12.86-127.65-12.29-40.45-33.31-65.9-67.75-69.18v-37.16c34.45-3.29,55.46-28.73,67.9-69.18,12.44-40.17,14.15-89.48,12.86-127.65Z"/>
  <path class="cls-2" d="M555.8,695.09c67.61,0,108.35-33.16,108.35-87.77,0-41.31-29.02-71.19-72.19-75.9v-1.72c31.73-5.15,56.6-34.59,56.6-67.47,0-46.88-37.02-77.33-93.34-77.33h-126.79v310.18h127.36Zm-78.19-270.87h65.61c35.74,0,55.89,15.87,55.89,44.74,0,30.73-23.59,47.89-66.32,47.89h-55.32c.14,0,.14-92.63,.14-92.63Zm0,231.42v-102.06h65.18c46.74,0,70.9,17.15,70.9,50.74s-23.59,51.32-68.04,51.32h-68.04Z"/>
</svg>