<?xml version="1.0" encoding="UTF-8"?>
<svg id="Capa_1" data-name="Capa 1" xmlns="http://www.w3.org/2000/svg" viewBox="0 0 1080 1080">
  <defs>
    <style>
      .cls-1 {
        fill: #fff;
      }

      .cls-2 {
        fill: #f8981d;
      }
    </style>
  </defs>
  <path class="cls-1" d="M370.15,659.46h-28.4c-1.01-47.9-3.78-92.96-8.31-135.2h-.25l-43.21,135.2h-21.6l-42.95-135.2h-.25c-3.19,40.52-5.2,85.62-6.04,135.2h-25.88c1.68-60.32,5.87-116.87,12.54-169.64h35.19l40.94,124.63h.25l41.19-124.63h33.68c7.38,61.83,11.75,118.38,13.09,169.64m123.12-125.17c-11.58,62.71-26.8,108.31-45.72,136.75-14.77,21.9-30.92,32.85-48.49,32.85-4.7,0-10.49-1.43-17.32-4.24v-15.14c3.36,.5,7.3,.76,11.79,.76,8.22,0,14.81-2.27,19.84-6.8,6.04-5.54,9.02-11.7,9.02-18.58,0-4.7-2.35-14.35-7.05-28.9l-31.17-96.77h27.9l22.36,72.36c5.03,16.44,7.13,27.9,6.29,34.44,12.25-32.68,20.76-68.29,25.63-106.8l26.93,.08h0Z"/>
  <path class="cls-2" d="M871.17,659.46h-80.67v-169.64h27.14v148.75h53.53v20.89h0Zm-101.76,4.07l-31.17-15.39c2.77-2.27,5.41-4.74,7.8-7.59,13.26-15.56,19.88-38.59,19.88-69.09,0-56.13-22.02-84.19-66.07-84.19-21.6,0-38.47,7.13-50.5,21.35-13.26,15.56-19.84,38.51-19.84,68.88s5.87,51.68,17.58,65.56c10.74,12.58,26.89,18.88,48.53,18.88,8.05,0,15.48-1.01,22.19-2.98l40.61,23.62,10.99-19.04Zm-101.01-38.05c-6.88-11.03-10.32-28.78-10.32-53.27,0-42.7,12.96-64.1,38.97-64.1,13.59,0,23.53,5.12,29.91,15.31,6.84,11.07,10.32,28.65,10.32,52.77,0,43.08-13,64.6-38.93,64.6-13.63,.04-23.57-5.03-29.95-15.31m-50.76-13.05c0,14.39-5.29,26.18-15.81,35.45-10.57,9.19-24.71,13.8-42.45,13.8-16.57,0-32.68-5.29-48.24-15.86l7.3-14.56c13.38,6.71,25.55,10.03,36.41,10.03,10.24,0,18.21-2.27,23.99-6.75,5.79-4.53,9.23-10.82,9.23-18.83,0-10.07-7.05-18.71-19.93-25.92-11.87-6.54-35.66-20.18-35.66-20.18-12.88-9.4-19.34-19.46-19.34-36.07,0-13.76,4.82-24.83,14.43-33.31,9.65-8.47,22.06-12.71,37.33-12.71s30.08,4.24,42.95,12.58l-6.54,14.56c-11.03-4.7-21.9-7.05-32.64-7.05-8.68,0-15.39,2.1-20.09,6.29-4.7,4.19-7.59,9.52-7.59,16.11,0,10.03,7.17,18.75,20.43,26.09,12.04,6.54,36.41,20.43,36.41,20.43,13.17,9.44,19.8,19.42,19.8,35.91"/>
  <path class="cls-1" d="M905.23,432.98c-16.4-.42-29.11,1.22-39.77,5.75-3.06,1.22-7.97,1.22-8.39,5.12,1.68,1.64,1.85,4.32,3.31,6.59,2.47,4.11,6.75,9.61,10.65,12.5,4.28,3.27,8.6,6.54,13.13,9.44,7.97,4.95,16.99,7.8,24.79,12.71,4.53,2.85,9.02,6.54,13.55,9.65,2.22,1.64,3.65,4.32,6.54,5.33v-.63c-1.47-1.85-1.85-4.53-3.27-6.54l-6.17-5.96c-5.96-7.97-13.34-14.98-21.31-20.68-6.54-4.53-20.93-10.65-23.57-18.21l-.42-.42c4.53-.42,9.86-2.06,14.14-3.31,6.96-1.85,13.34-1.43,20.47-3.27,3.27-.84,6.54-1.85,9.86-2.85v-1.85c-3.69-3.69-6.33-8.6-10.24-12.08-10.44-9.02-21.94-17.83-33.81-25.21-6.38-4.11-14.56-6.75-21.31-10.24-2.43-1.22-6.54-1.85-8.01-3.9-3.69-4.53-5.75-10.44-8.39-15.77-5.91-11.28-11.66-23.74-16.78-35.66-3.69-7.97-5.96-15.98-10.44-23.36-21.14-34.82-44.05-55.96-79.32-76.64-7.59-4.32-16.57-6.17-26.22-8.39l-15.39-.8c-3.27-1.43-6.59-5.33-9.44-7.17-11.7-7.38-41.82-23.36-50.42-2.27-5.54,13.34,8.18,26.47,12.92,33.22,3.48,4.7,8.01,10.03,10.44,15.35,1.43,3.48,1.85,7.17,3.27,10.86,3.27,9.02,6.33,19.04,10.65,27.48,2.27,4.28,4.7,8.81,7.59,12.67,1.64,2.27,4.53,3.27,5.12,6.96-2.85,4.07-3.1,10.24-4.74,15.35-7.38,23.16-4.49,51.85,5.96,68.88,3.27,5.12,11.07,16.4,21.52,12.08,9.23-3.69,7.17-15.35,9.86-25.63,.63-2.47,.21-4.11,1.43-5.7v.42c2.85,5.75,5.75,11.24,8.39,16.99,6.38,10.03,17.45,20.47,26.64,27.43,4.91,3.69,8.81,10.07,14.93,12.33v-.63h-.42c-1.26-1.85-3.06-2.64-4.7-4.07-3.69-3.69-7.8-8.22-10.65-12.29-8.6-11.49-16.19-24.2-22.95-37.29-3.31-6.38-6.17-13.34-8.81-19.67-1.26-2.43-1.26-6.17-3.31-7.38-3.1,4.49-7.59,8.39-9.82,13.93-3.9,8.81-4.32,19.67-5.75,30.96l-.8,.38c-6.54-1.64-8.81-8.39-11.28-14.14-6.12-14.56-7.17-37.92-1.85-54.74,1.43-4.28,7.59-17.83,5.12-21.9-1.22-3.94-5.33-6.17-7.59-9.23-2.64-3.9-5.54-8.81-7.38-13.13-4.91-11.45-7.38-24.2-12.67-35.66-2.47-5.33-6.75-10.86-10.24-15.81-3.9-5.54-8.22-9.44-11.28-15.98-1.01-2.27-2.43-5.96-.8-8.39,.42-1.64,1.22-2.27,2.85-2.68,2.64-2.22,10.24,.63,12.92,1.85,7.59,3.06,13.97,5.96,20.3,10.24,2.85,2.06,5.96,5.96,9.65,6.96h4.32c6.54,1.43,13.93,.38,20.09,2.27,10.86,3.48,20.68,8.6,29.53,14.14,26.85,17.03,48.99,41.19,63.93,70.09,2.43,4.7,3.48,9.02,5.75,13.93,4.32,10.07,9.65,20.3,13.93,30.12,4.32,9.65,8.39,19.46,14.56,27.48,3.06,4.32,15.39,6.54,20.93,8.81,4.07,1.85,10.44,3.48,14.14,5.75,6.96,4.28,13.93,9.23,20.47,13.97,3.19,2.35,13.42,7.51,14.05,11.58m-209.07-178.07c-2.81-.04-5.66,.34-8.39,1.05v.42h.38c1.64,3.27,4.53,5.54,6.59,8.39,1.64,3.27,3.1,6.54,4.7,9.82l.38-.42c2.89-2.06,4.32-5.33,4.32-10.24-1.26-1.47-1.43-2.85-2.47-4.32-1.17-2.06-3.82-3.06-5.5-4.7"/>
  <path class="cls-2" d="M940.26,659.41h4.24v-20.76h-6.38l-5.2,14.18-5.66-14.18h-6.12v20.76h4.03v-15.81h.21l5.91,15.81h3.06l5.87-15.81,.04,15.81h0Zm-34.19,0h4.49v-17.24h5.87v-3.52h-16.49v3.52h6.12v17.24h0Z"/>
</svg>