<?xml version="1.0" encoding="utf-8"?>
<!-- Generator: Adobe Illustrator 26.4.1, SVG Export Plug-In . SVG Version: 6.00 Build 0)  -->
<svg version="1.1" id="Capa_1" xmlns="http://www.w3.org/2000/svg" xmlns:xlink="http://www.w3.org/1999/xlink" x="0px" y="0px"
	 viewBox="0 0 711.2 383.6" style="enable-background:new 0 0 711.2 383.6;" xml:space="preserve">
<style type="text/css">
	.st0{fill:url(#path3462_00000119079623746681544470000008476033850783152258_);}
	.st1{fill:#777BB3;}
	.st2{fill:#FFFFFF;}
</style>
<radialGradient id="path3462_00000071552393640992420780000014468660594066112671_" cx="175.6122" cy="512.7202" r="1" gradientTransform="matrix(453.8224 0 0 -453.8224 -79479.2344 232757.7812)" gradientUnits="userSpaceOnUse">
	<stop  offset="0" style="stop-color:#AEB2D5"/>
	<stop  offset="0.3" style="stop-color:#AEB2D5"/>
	<stop  offset="0.75" style="stop-color:#484C89"/>
	<stop  offset="1" style="stop-color:#484C89"/>
</radialGradient>
<path id="path3462" style="fill:url(#path3462_00000071552393640992420780000014468660594066112671_);" d="M10,191.8
	c0,100.4,154.7,181.8,345.6,181.8l0,0c190.9,0,345.6-81.4,345.6-181.8l0,0C701.2,91.4,546.5,10,355.6,10l0,0
	C164.7,10,10,91.4,10,191.8"/>
<path id="path3474" class="st1" d="M355.6,360.1c183.4,0,332.1-75.4,332.1-168.3c0-92.9-148.7-168.3-332.1-168.3
	S23.5,98.8,23.5,191.8C23.5,284.7,172.2,360.1,355.6,360.1"/>
<path id="path3486" d="M197.8,212.7c15.1,0,26.3-2.8,33.5-8.3c7-5.4,11.9-14.8,14.5-27.9c2.4-12.3,1.5-20.8-2.7-25.4
	c-4.3-4.7-13.5-7.1-27.4-7.1h-24.1l-13.4,68.8H197.8z M118.9,297.4c-1.1,0-2.2-0.5-2.9-1.4c-0.7-0.9-1-2-0.8-3.1l35.4-182.2
	c0.3-1.8,1.9-3,3.7-3h76.3c24,0,41.8,6.5,53.1,19.4c11.3,12.9,14.8,31,10.4,53.7c-1.8,9.2-4.9,17.8-9.2,25.5
	c-4.3,7.7-10,14.8-16.9,21.2c-8.3,7.7-17.6,13.4-27.8,16.7c-10,3.3-22.9,4.9-38.2,4.9h-30.9l-8.8,45.4c-0.3,1.8-1.9,3-3.7,3H118.9z"
	/>
<path id="path3490" class="st2" d="M194.6,147.7h21c16.8,0,22.6,3.7,24.6,5.9c3.3,3.6,3.9,11.3,1.8,22.2
	c-2.4,12.2-6.8,20.8-13.1,25.7c-6.5,5-16.9,7.5-31.2,7.5h-15L194.6,147.7z M230.7,103.9h-76.3c-3.6,0-6.7,2.5-7.4,6.1l-35.4,182.2
	c-0.4,2.2,0.2,4.5,1.6,6.2c1.4,1.7,3.5,2.7,5.8,2.7h39.7c3.6,0,6.7-2.5,7.4-6.1l8.2-42.4H202c15.7,0,29-1.7,39.3-5.1
	c10.7-3.5,20.5-9.4,29.2-17.5c7.2-6.6,13.1-14,17.6-22.1c4.5-8,7.7-17,9.6-26.6c4.6-23.9,0.9-43-11.2-56.8
	C274.6,110.9,255.8,103.9,230.7,103.9 M173.6,216.4h24.1c16,0,27.9-3,35.8-9c7.8-6,13.1-16.1,15.9-30.2c2.6-13.5,1.4-23.1-3.6-28.7
	c-5-5.6-15.1-8.4-30.2-8.4h-27.2L173.6,216.4 M230.7,111.4c23,0,39.7,6,50.2,18.1c10.5,12.1,13.7,28.9,9.5,50.5
	c-1.7,8.9-4.7,17-8.8,24.4c-4.1,7.4-9.5,14.1-16.2,20.2c-7.9,7.4-16.7,12.7-26.4,15.8c-9.7,3.2-22,4.7-37,4.7h-34l-9.4,48.4h-39.7
	l35.4-182.2H230.7"/>
<path id="path3494" d="M385.1,248.9c-1.1,0-2.2-0.5-2.9-1.4c-0.7-0.9-1-2-0.8-3.1l15.7-80.6c1.5-7.7,1.1-13.2-1-15.5
	c-1.3-1.4-5.3-3.8-17-3.8h-28.4l-19.7,101.3c-0.3,1.8-1.9,3-3.7,3h-39.4c-1.1,0-2.2-0.5-2.9-1.4c-0.7-0.9-1-2-0.8-3.1l35.4-182.2
	c0.3-1.8,1.9-3,3.7-3h39.4c1.1,0,2.2,0.5,2.9,1.4c0.7,0.9,1,2,0.8,3.1l-8.5,44h30.5c23.3,0,39,4.1,48.2,12.5
	c9.4,8.6,12.3,22.4,8.7,40.9l-16.5,84.8c-0.3,1.8-1.9,3-3.7,3H385.1z"/>
<path id="path3498" class="st2" d="M362.7,55.5h-39.4c-3.6,0-6.7,2.5-7.4,6.1l-35.4,182.2c-0.4,2.2,0.1,4.5,1.6,6.2
	c1.4,1.7,3.5,2.7,5.8,2.7h39.4c3.6,0,6.7-2.5,7.4-6.1l19.1-98.3H379c11.7,0,14.2,2.5,14.3,2.6c0.7,0.8,1.6,4.3,0.1,12.2l-15.7,80.6
	c-0.4,2.2,0.1,4.5,1.6,6.2c1.4,1.7,3.5,2.7,5.8,2.7h40c3.6,0,6.7-2.5,7.4-6.1l16.5-84.8c3.9-19.9,0.6-34.8-9.8-44.4
	c-9.9-9.1-26.5-13.5-50.7-13.5h-26l7.7-39.5c0.4-2.2-0.1-4.5-1.6-6.2C367,56.5,364.9,55.5,362.7,55.5 M362.7,63l-9.4,48.4h35.1
	c22.1,0,37.3,3.9,45.7,11.5c8.4,7.7,10.9,20.2,7.5,37.4l-16.5,84.8h-40l15.7-80.6c1.8-9.2,1.1-15.4-2-18.8c-3.1-3.3-9.7-5-19.8-5
	h-31.5l-20.3,104.4h-39.4L323.3,63H362.7"/>
<path id="path3502" d="M507.5,212.7c15.1,0,26.3-2.8,33.5-8.3c7-5.4,11.9-14.8,14.5-27.9c2.4-12.3,1.5-20.8-2.7-25.4
	c-4.3-4.7-13.5-7.1-27.4-7.1h-24.1l-13.4,68.8H507.5z M428.7,297.4c-1.1,0-2.2-0.5-2.9-1.4c-0.7-0.9-1-2-0.8-3.1l35.4-182.2
	c0.3-1.8,1.9-3,3.7-3h76.3c24,0,41.8,6.5,53.1,19.4c11.3,12.9,14.8,31,10.4,53.7c-1.8,9.2-4.9,17.8-9.2,25.5
	c-4.3,7.7-10,14.8-16.9,21.2c-8.3,7.7-17.6,13.4-27.8,16.7c-10,3.3-22.9,4.9-38.2,4.9h-30.9l-8.8,45.4c-0.3,1.8-1.9,3-3.7,3H428.7z"
	/>
<path id="path3506" class="st2" d="M504.4,147.7h21c16.8,0,22.6,3.7,24.6,5.9c3.3,3.6,3.9,11.3,1.8,22.2
	c-2.4,12.2-6.8,20.8-13.1,25.7c-6.5,5-16.9,7.5-31.2,7.5h-15L504.4,147.7z M540.4,103.9h-76.3c-3.6,0-6.7,2.5-7.4,6.1l-35.4,182.2
	c-0.4,2.2,0.1,4.5,1.6,6.2c1.4,1.7,3.5,2.7,5.8,2.7h39.7c3.6,0,6.7-2.5,7.4-6.1l8.2-42.4h27.8c15.7,0,29-1.7,39.3-5.1
	c10.7-3.5,20.5-9.4,29.2-17.5c7.2-6.6,13.1-14,17.6-22.1c4.5-8,7.7-17,9.6-26.6c4.6-23.9,0.9-43-11.2-56.8
	C584.4,110.9,565.6,103.9,540.4,103.9 M483.4,216.4h24.1c16,0,27.9-3,35.8-9c7.8-6,13.1-16.1,15.9-30.2c2.6-13.5,1.4-23.1-3.6-28.7
	c-5-5.6-15.1-8.4-30.2-8.4h-27.2L483.4,216.4 M540.4,111.4c23,0,39.7,6,50.2,18.1c10.5,12.1,13.7,28.9,9.5,50.5
	c-1.7,8.9-4.7,17-8.8,24.4c-4.1,7.4-9.5,14.1-16.2,20.2c-7.9,7.4-16.7,12.7-26.4,15.8c-9.7,3.2-22,4.7-37,4.7h-34l-9.4,48.4h-39.7
	l35.4-182.2H540.4"/>
</svg>
