<?xml version="1.0" encoding="UTF-8"?>
<svg id="Capa_1" data-name="Capa 1" xmlns="http://www.w3.org/2000/svg" viewBox="0 0 1080 1080">
  <defs>
    <style>
      .cls-1 {
        fill: #61dafb;
      }
    </style>
  </defs>
  <path class="cls-1" d="M540.01,680.13c-204.57,0-364.84-65.5-364.84-149.12s160.27-149.12,364.84-149.12,364.84,65.5,364.84,149.12-160.27,149.12-364.84,149.12Zm0-266.51c-196.3,0-333.12,61.87-333.12,117.39s136.82,117.39,333.12,117.39,333.12-61.87,333.12-117.39-136.82-117.39-333.12-117.39Z"/>
  <path class="cls-1" d="M685.66,856.39c-32.31,0-71.41-17.75-113.86-52.24-56.2-45.7-113.36-116.21-160.89-198.56-102.3-177.19-125.72-348.73-53.32-390.53,72.34-41.92,209.28,64.26,311.55,241.41h0c102.3,177.15,125.69,348.7,53.29,390.5-10.91,6.32-23.24,9.42-36.78,9.42ZM394.27,237.46c-7.93,0-14.93,1.67-20.82,5.05-48.08,27.79-33.24,177.22,64.91,347.21,45.67,79.1,100.16,146.48,153.45,189.8,48.58,39.47,90.47,54.06,114.76,40,48.08-27.79,33.24-177.19-64.88-347.18h0c-86.16-149.18-190.63-234.87-247.42-234.87Z"/>
  <path class="cls-1" d="M394.36,856.39c-13.54,0-25.87-3.1-36.78-9.42-72.4-41.83-49.01-213.34,53.32-390.5,102.24-177.15,238.96-283.39,311.52-241.41,72.4,41.79,48.98,213.34-53.29,390.53h0c-47.56,82.35-104.69,152.86-160.92,198.56-42.45,34.48-81.54,52.24-113.86,52.24ZM685.75,237.46c-56.79,0-161.26,85.67-247.39,234.87-98.15,170-112.99,319.39-64.91,347.18,24.32,14,66.21-.53,114.76-40,53.29-43.28,107.79-110.7,153.48-189.8,98.12-170.03,112.96-319.42,64.88-347.21-5.89-3.38-12.89-5.05-20.82-5.05Z"/>
  <circle class="cls-1" cx="540.02" cy="531.02" r="65.04"/>
</svg>